<mxfile host="65bd71144e">
    <diagram id="OBBd6NsxkmT4sHoRkoNz" name="Page-1">
        <mxGraphModel dx="1297" dy="805" grid="1" gridSize="10" guides="1" tooltips="1" connect="1" arrows="1" fold="1" page="1" pageScale="1" pageWidth="827" pageHeight="1169" math="0" shadow="0">
            <root>
                <mxCell id="0"/>
                <mxCell id="1" parent="0"/>
                <mxCell id="2" value="&lt;h1 style=&quot;margin-top: 0px;&quot;&gt;&lt;font style=&quot;font-weight: normal; font-size: 18px;&quot; face=&quot;Tahoma&quot;&gt;wGPU-based Custom 2D Render pipeline for J&lt;/font&gt;&lt;span style=&quot;font-size: 18px; font-weight: normal; font-family: Tahoma; background-color: transparent;&quot;&gt;avascript&amp;amp;&lt;/span&gt;&lt;span style=&quot;font-size: 18px; font-weight: normal; font-family: Tahoma; background-color: transparent;&quot;&gt;HTML&amp;amp;CSS&lt;/span&gt;&lt;/h1&gt;&lt;p&gt;&lt;font face=&quot;Tahoma&quot; style=&quot;font-size: 14px;&quot;&gt;&lt;font style=&quot;&quot;&gt;Goods:&lt;/font&gt;&lt;br&gt;&lt;/font&gt;&lt;/p&gt;&lt;ul&gt;&lt;li&gt;&lt;font face=&quot;Tahoma&quot; size=&quot;3&quot; style=&quot;&quot;&gt;&lt;font style=&quot;&quot;&gt;Stand on the giant shoulders: ui libraries on react(virtual-dom) and solid(real-dom), css animation, flex layout, ai&lt;/font&gt;&lt;br&gt;&lt;/font&gt;&lt;/li&gt;&lt;li&gt;&lt;font face=&quot;Tahoma&quot; size=&quot;3&quot;&gt;Avoid re-inventing Rust wheels: box layout engine, css parser, wpgu,&lt;/font&gt;&lt;/li&gt;&lt;li&gt;&lt;font face=&quot;Tahoma&quot; size=&quot;3&quot;&gt;Cross platform: use native gpu api webgl, directX, metal&lt;br&gt;&lt;/font&gt;&lt;/li&gt;&lt;li&gt;&lt;font face=&quot;Tahoma&quot; size=&quot;3&quot;&gt;highly customised:&lt;br&gt;1 use javascript-based ui/anime library if perf not matters&lt;br&gt;2 create customized&amp;nbsp;&lt;/font&gt;&lt;/li&gt;&lt;/ul&gt;&amp;nbsp;&lt;br&gt;&lt;br&gt;&lt;p&gt;&lt;/p&gt;" style="text;html=1;whiteSpace=wrap;overflow=hidden;rounded=0;" vertex="1" parent="1">
                    <mxGeometry x="150" y="130" width="580" height="250" as="geometry"/>
                </mxCell>
                <mxCell id="3" value="&lt;font style=&quot;font-size: 18px;&quot; face=&quot;Tahoma&quot;&gt;Javascript&lt;br&gt;React Virtual Dom&lt;/font&gt;" style="shape=step;perimeter=stepPerimeter;whiteSpace=wrap;html=1;fixedSize=1;" vertex="1" parent="1">
                    <mxGeometry x="40" y="520" width="200" height="70" as="geometry"/>
                </mxCell>
                <mxCell id="4" value="&lt;font face=&quot;Tahoma&quot;&gt;&lt;span style=&quot;font-size: 18px;&quot;&gt;CSS Style&lt;/span&gt;&lt;/font&gt;" style="shape=step;perimeter=stepPerimeter;whiteSpace=wrap;html=1;fixedSize=1;" vertex="1" parent="1">
                    <mxGeometry x="230" y="520" width="200" height="70" as="geometry"/>
                </mxCell>
                <mxCell id="7" value="&lt;font face=&quot;Tahoma&quot;&gt;&lt;span style=&quot;font-size: 18px;&quot;&gt;Box layout&lt;/span&gt;&lt;/font&gt;" style="shape=step;perimeter=stepPerimeter;whiteSpace=wrap;html=1;fixedSize=1;" vertex="1" parent="1">
                    <mxGeometry x="420" y="520" width="200" height="70" as="geometry"/>
                </mxCell>
                <mxCell id="8" value="&lt;font face=&quot;Tahoma&quot;&gt;&lt;span style=&quot;font-size: 18px;&quot;&gt;Compositor&lt;/span&gt;&lt;/font&gt;" style="shape=step;perimeter=stepPerimeter;whiteSpace=wrap;html=1;fixedSize=1;" vertex="1" parent="1">
                    <mxGeometry x="610" y="520" width="200" height="70" as="geometry"/>
                </mxCell>
                <mxCell id="10" value="&lt;font face=&quot;Tahoma&quot;&gt;&lt;span style=&quot;font-size: 18px;&quot;&gt;Draw&lt;/span&gt;&lt;/font&gt;" style="shape=step;perimeter=stepPerimeter;whiteSpace=wrap;html=1;fixedSize=1;" vertex="1" parent="1">
                    <mxGeometry x="800" y="520" width="200" height="70" as="geometry"/>
                </mxCell>
                <mxCell id="20" value="" style="edgeStyle=none;html=1;" edge="1" parent="1" source="11" target="19">
                    <mxGeometry relative="1" as="geometry"/>
                </mxCell>
                <mxCell id="22" value="" style="edgeStyle=none;html=1;" edge="1" parent="1" source="11" target="21">
                    <mxGeometry relative="1" as="geometry"/>
                </mxCell>
                <mxCell id="11" value="&lt;font face=&quot;Tahoma&quot;&gt;&lt;span style=&quot;font-size: 18px;&quot;&gt;Rust Dom API&lt;br&gt;Rust Dom&lt;/span&gt;&lt;/font&gt;" style="shape=step;perimeter=stepPerimeter;whiteSpace=wrap;html=1;fixedSize=1;" vertex="1" parent="1">
                    <mxGeometry x="40" y="680" width="200" height="70" as="geometry"/>
                </mxCell>
                <mxCell id="12" value="&lt;font style=&quot;font-size: 18px;&quot; face=&quot;Tahoma&quot;&gt;Javascript&lt;br&gt;Solid Rust Dom&lt;/font&gt;" style="shape=step;perimeter=stepPerimeter;whiteSpace=wrap;html=1;fixedSize=1;" vertex="1" parent="1">
                    <mxGeometry x="40" y="600" width="200" height="70" as="geometry"/>
                </mxCell>
                <mxCell id="24" value="" style="edgeStyle=none;html=1;" edge="1" parent="1" source="19" target="23">
                    <mxGeometry relative="1" as="geometry"/>
                </mxCell>
                <mxCell id="28" style="edgeStyle=none;html=1;entryX=0.5;entryY=0;entryDx=0;entryDy=0;" edge="1" parent="1" source="19" target="27">
                    <mxGeometry relative="1" as="geometry"/>
                </mxCell>
                <mxCell id="19" value="item table" style="ellipse;whiteSpace=wrap;html=1;" vertex="1" parent="1">
                    <mxGeometry x="80" y="790" width="40" height="40" as="geometry"/>
                </mxCell>
                <mxCell id="26" style="edgeStyle=none;html=1;" edge="1" parent="1" source="21" target="25">
                    <mxGeometry relative="1" as="geometry"/>
                </mxCell>
                <mxCell id="30" style="edgeStyle=none;html=1;" edge="1" parent="1" source="21" target="29">
                    <mxGeometry relative="1" as="geometry"/>
                </mxCell>
                <mxCell id="21" value="item form" style="ellipse;whiteSpace=wrap;html=1;" vertex="1" parent="1">
                    <mxGeometry x="160" y="790" width="40" height="40" as="geometry"/>
                </mxCell>
                <mxCell id="23" value="row1" style="ellipse;whiteSpace=wrap;html=1;" vertex="1" parent="1">
                    <mxGeometry x="50" y="870" width="40" height="40" as="geometry"/>
                </mxCell>
                <mxCell id="25" value="input1" style="ellipse;whiteSpace=wrap;html=1;" vertex="1" parent="1">
                    <mxGeometry x="160" y="870" width="40" height="40" as="geometry"/>
                </mxCell>
                <mxCell id="27" value="row2" style="ellipse;whiteSpace=wrap;html=1;" vertex="1" parent="1">
                    <mxGeometry x="100" y="870" width="40" height="40" as="geometry"/>
                </mxCell>
                <mxCell id="29" value="input2" style="ellipse;whiteSpace=wrap;html=1;" vertex="1" parent="1">
                    <mxGeometry x="210" y="870" width="40" height="40" as="geometry"/>
                </mxCell>
                <mxCell id="33" value="React mixed up ui, states and event handler, hard to test and&lt;div&gt;&lt;br&gt;&lt;/div&gt;" style="shape=document;whiteSpace=wrap;html=1;boundedLbl=1;" vertex="1" parent="1">
                    <mxGeometry x="50" y="950" width="130" height="110" as="geometry"/>
                </mxCell>
            </root>
        </mxGraphModel>
    </diagram>
</mxfile>
